<svg version="1.1" id="Layer_1" xmlns="http://www.w3.org/2000/svg" x="0" y="0" viewBox="0 0 305.3 305.5" style="enable-background:new 0 0 305.3 305.5" xml:space="preserve"><style>.st0{fill:#1394cd}</style><path class="st0" d="M143.1 305.5c-5.6-.8-11.2-1.4-16.8-2.4-34.8-6.2-64-22.6-87.6-48.8-20.7-23.1-33.6-50.2-37.4-81-6.1-50.3 8.8-93.7 44.6-129.5 23.9-23.9 53-38.1 86.4-42.4 40.4-5.2 77.3 4.2 110.4 28 .7.5 1.5 1 2.7 1.9V28c0-5.6-.1-11.1.1-16.7.1-4.9 3.8-8.5 8.4-8.8 4.5-.3 8.6 3.1 9.3 7.9.1.9.1 1.8.1 2.7v39.1c0 7.2-3.4 10.6-10.6 10.6h-40.3c-4.8 0-8.2-3-9-7.5-.7-4 1.6-8.1 5.4-9.6 1.5-.6 3.3-.8 4.9-.8 6-.1 12.1 0 19.1 0-1.6-1.2-2.4-1.9-3.3-2.5-27.3-18.9-57.6-26.8-90.6-23.7C80 24.1 30.2 70.3 20.1 128.6c-10 57.9 16.2 113.4 67.5 142.1 23 12.9 47.9 18.4 74.3 16.4 58.4-4.5 105.6-43.6 121-100.2 2.8-10.4 4.2-21 4.4-31.8.1-6.5 2.3-9.9 6.9-11.1 4.4-1.1 7.8.9 11.1 6.4v11.9c-.5 3.7-.9 7.5-1.4 11.2-4.4 30.5-16.6 57.4-37.1 80.4-23.5 26.4-52.8 42.9-87.6 49.2-5.6 1-11.4 1.6-17 2.4h-19.1z"/><path class="st0" d="M110.1 191.6H146.4c3.6 0 5.9 1.8 6.5 4.9.5 2.6-.9 5.6-3.5 6.5-1.3.4-2.7.5-4.1.5H96.5c-.5-5.6-.7-11.1 2.4-15.7 3.6-5.4 7.7-10.6 12.2-15.3 6.5-6.8 13.6-13.1 20.2-19.8 2.3-2.3 4.2-5.1 5.7-8 4.9-9.4-1.3-20.4-11.8-21.4-11.2-1-18.3 5-19.1 16.2-.3 4.6-2.2 6.9-5.6 7.2-3.7.3-6.3-2.2-6.5-6.2-.6-13.8 7.5-24.7 20.9-28.2 14.5-3.8 28.9 2.9 34 15.9 3.1 8 2.9 16-1.9 23.1-3.9 5.9-8.7 11.3-13.6 16.4-5.9 6.3-12.4 12-18.6 18.1-1.7 1.7-2.8 3.4-4.7 5.8z"/><path class="st0" d="M200.5 167.7h11c4.4 0 6.9 2.4 6.9 6.1 0 3.6-2.6 5.8-6.8 5.9-3.4 0-6.8 0-10.1.1-.2 0-.4.1-1 .3v17.3c-.1 3.8-2.4 6.2-5.8 6.2-3.5.1-6-2.4-6.1-6.3-.1-4.8 0-9.5 0-14.3v-3.3h-29c-6 0-8.6-4.7-5.5-9.7 11.7-18.6 23.4-37.1 35.1-55.7 1.9-3 4.5-4 7.3-3.1 2.6.8 4 3.1 4 6.6v49.9zm-12.2-28.9c-.2-.1-.3-.1-.5-.2-6 9.5-12 19.1-18.2 28.8h18.7v-28.6zM51.9 155.6c.1 3.4-2.6 6.1-5.9 6.1-3.2 0-5.9-2.7-6-5.8-.1-3.3 2.7-6.1 6-6.1 3.2 0 5.8 2.5 5.9 5.8zM153.6 56.8c-3.3-.1-5.8-2.6-5.8-5.9 0-3.3 2.8-6.1 6.1-6 3.2.1 5.8 2.8 5.9 6-.1 3.3-2.8 5.9-6.2 5.9zM252.7 155.9c-.1-3.4 2.6-6.1 5.9-6.1 3.2 0 5.9 2.6 6 5.8.1 3.3-2.7 6.1-6 6.1s-5.9-2.6-5.9-5.8zM153.8 254.6c3.3 0 5.9 2.6 5.9 5.8.1 3.3-2.8 6.1-6 6.1-3.3 0-6-2.9-5.9-6.2.1-3.2 2.7-5.7 6-5.7z"/><path class="st0" d="M188.3 138.8v28.6h-18.7c6.2-9.8 12.2-19.3 18.2-28.8.2.1.4.1.5.2z"/></svg>