<svg version="1.1" id="Layer_1" xmlns="http://www.w3.org/2000/svg" x="0" y="0" viewBox="0 0 407.6 408.6" style="enable-background:new 0 0 407.6 408.6" xml:space="preserve"><style>.st0{fill:#1394cd}</style><path class="st0" d="M366.6 408.6H42.4c-.6-.2-1.2-.6-1.8-.7-13.2-2.1-23.6-8.8-31.5-19.4-5.1-6.7-7.4-14.4-9.1-22.3V74c.3-.9.6-1.7.8-2.6C4 54.7 13.4 43 28.6 35.8c8.8-4.2 18.3-4.3 27.7-4.1 3.5.1 7.1 0 10.9 0V0h32v31.5h210.7V.1h32v31.6c6.1 0 12-.3 17.7.1 5.7.4 11.5.9 16.8 2.6 20.1 6.7 32.4 24.8 32.4 46.8v280.2c-.6 15.7-7.1 28.4-19.7 37.9-6.6 5.1-14.4 7.5-22.5 9.3zM377 150.1H32v207.4c0 13 6 19.1 19 19.1h307c13 0 19-6 19-19.1V150.1zM32 117.6h344.9c0-13.3.2-26.3-.1-39.3-.2-7.3-5.9-13.6-13.3-14.3-7.1-.6-14.3-.1-21.8-.1v31.4h-32V64H99v31.4H67V63.8c-6.9 0-13.5-.2-20 .1-8.2.4-14.7 6.8-14.9 14.9-.3 12.7-.1 25.6-.1 38.8z"/><path class="st0" d="M60.9 215.1v-31.5h31.6v31.5H60.9zM156.3 215.1h-31.5v-31.4h31.5v31.4zM188.7 183.6h31.5V215h-31.5v-31.4zM284.1 183.7v31.5h-31.5v-31.5h31.5zM316.5 183.6h31.4V215h-31.4v-31.4zM60.9 278.9v-31.4h31.5v31.4H60.9zM124.9 247.4h31.4v31.4h-31.4v-31.4zM220.2 247.5v31.4h-31.5v-31.4h31.5zM284 279h-31.5v-31.4H284V279zM316.5 247.4H348v31.4h-31.5v-31.4zM92.5 311.4v31.4H61v-31.4h31.5zM156.4 311.4v31.4h-31.5v-31.4h31.5zM220.1 343h-31.3v-31.6h31.3V343zM252.7 311.3h31.5v31.4h-31.5v-31.4z"/></svg>