<svg version="1.1" id="Layer_1" xmlns="http://www.w3.org/2000/svg" x="0" y="0" viewBox="0 0 384.7 331.6" style="enable-background:new 0 0 384.7 331.6" xml:space="preserve"><style>.st0{fill:#1394cd}</style><path class="st0" d="M0 85.6c1.9-1 3.7-2.7 5.6-3 3.1-.4 5.1 1.5 5.5 4.8.2 1.2.1 2.5.1 3.7v192.7c0 5.5 0 5.5 5.3 5.5h238.4v-11.8H31.6c-7.2 0-8.5-1.4-8.5-8.5V31.3c0-7 1.4-8.4 8.3-8.4h321.4c6.7 0 8.2 1.5 8.2 8.1v150c0 5.1-1.4 7-5 7.3-3.3.2-5.6-1.5-6.1-4.7-.2-1.3-.1-2.7-.1-4.1v-145H34.7V266h220.5v-24.6c-1.7 0-3.4.1-5.1 0-8-.6-13.1-5-12.7-12.8.4-7.5-1.6-12.9-7.3-17.9-6.1-5.5-5.5-12.5-.1-18.7.7-.7 1.3-1.6 2.1-2.1 4.2-2.9 6-6.8 5.1-11.9-.2-.8-.1-1.7 0-2.6.3-8.6 4.9-14.1 13.4-13.7 7.3.4 12.3-1.8 17.2-7.2 5.5-6.1 12.5-5.7 18.7-.3 1.3 1.1 2.6 2.4 3.6 3.8 2.3 3 5.2 4.1 8.9 3.6 1.1-.2 2.2-.2 3.4-.1 9.7 0 15.3 5.2 14.7 14.8-.4 6.2 1.3 10.5 6 14.6 7.5 6.7 7.5 14.6-.1 21.3-4.7 4.2-6.4 8.4-5.8 14.7 1 10.3-4 15-14.4 14.8h-3.6v24.5h50.7v-49.7c0-1.2-.1-2.5.1-3.7.5-3.3 2.7-5.1 6-4.8 3.3.2 5 2 5.1 5.3.1 5.6 0 11.2 0 16.9v40.5c0 5.3-1.9 7.2-7.2 7.2h-54.6v11.6c1.3.1 2.5.2 3.7.2h65.2c4.7 0 4.8-.1 4.8-4.9 0-89.5 0-179 .1-268.5 0-3.9-1.2-4.8-4.9-4.8-117.2.1-234.5.1-351.7.1-4.9 0-4.9 0-4.9 5v40.9c0 3-.1 5.9-3.5 7.1-3.6 1-6.1-.5-8.1-3V9.9C3.2 2.4 8.9 0 17 0c116.6.2 233.1.2 349.7 0 8.1 0 14.1 2.2 17.4 9.9v280.5c-2.8 7.8-8.6 10.5-16.6 10.4-21.4-.2-42.7-.1-64.1-.1-1.4 0-2.9.1-4.6.2 0 8.4.1 16.4 0 24.3-.1 5.3-3.8 7.6-8.7 5.6-3.5-1.5-7-3.4-10.6-4.8-1.4-.5-3.4-.6-4.8-.1-3.7 1.4-7.2 3.4-10.9 4.9-4.6 1.9-7.9-.2-8.5-5.1-.2-1.5-.1-3-.1-4.5v-20.6H250c-77.8 0-155.6-.1-233.4.1-8.1 0-13.8-2.6-16.6-10.4V85.6zm277.1 157.1c1.8-2 3.5-3.7 4.9-5.6 4.1-5.5 9.5-7.8 16.4-6.9 1 .1 2 .1 3 .2 4.3.1 5-.3 4.4-4.7-1.1-8.6 1.7-15.4 8.5-20.7 3.6-2.9 3.6-4-.1-6.9-6.7-5.3-9.5-11.9-8.5-20.4.6-4.7-.1-5.4-4.9-4.9-8.4.9-15.1-1.8-20.4-8.5-2.9-3.8-4-3.8-6.9 0-5.3 6.7-11.9 9.5-20.4 8.6-4.9-.5-5.4 0-4.9 4.8.9 8.6-1.9 15.3-8.8 20.7-3.5 2.7-3.5 3.8.1 6.6 6.7 5.3 9.5 11.9 8.6 20.3-.5 5.1 0 5.3 5.1 5.1.9 0 1.7-.1 2.6-.2 6.3-.5 11.6 1.3 15.5 6.4 1.9 2 3.7 3.9 5.8 6.1zm-10.2 6.2v68.8c6.9-5.8 13.5-5.4 20.3-.3v-68.5c-9 6.5-11.1 6.5-20.3 0z"/><path class="st0" d="M192.1 104.4h115.8c1.2 0 2.5-.1 3.7.1 2.9.4 4.8 2.2 4.9 5.2.2 3.3-1.6 5.1-4.7 5.8-1.2.3-2.5.1-3.7.1H75.7c-1.4 0-2.8.1-4.1-.2-2.9-.8-4.3-2.9-4.1-5.9.2-2.8 1.7-4.7 4.6-5.1 1.2-.2 2.5-.1 3.7-.1 38.8.1 77.5.1 116.3.1zM170.3 81.3H76.2c-1.4 0-2.8 0-4.1-.1-2.9-.4-4.4-2.3-4.5-5.1-.2-2.8 1-4.9 3.9-5.7 1.3-.3 2.7-.4 4.1-.4h188.9c1.4 0 2.8 0 4.1.4 2.8.8 4 2.9 3.8 5.7-.2 2.8-1.6 4.7-4.6 5.1-1.4.2-2.7.1-4.1.1h-93.4zM87.4 218.8c-1.9 6.3-3.8 12.3-5.7 18.4-.3 1.1-.7 2.2-1.3 3.1-1.9 2.8-4.4 3.6-7.5 2.2-3.1-1.3-3.4-3.7-2.6-6.8 3.1-12.1 6.2-24.1 8.8-36.3 1.1-5.2 1-10.7 1.4-16 .1-1.6.1-3.3.4-4.8.6-3.2 2.9-4.5 5.9-4.6 3-.1 4.6 1.6 5 4.5 1.2 8 2 16.1 3.6 24.1 1.2 6 3.1 11.8 5.1 17.5 1.2 3.4 3.1 3.6 5.5.9 1.4-1.7 2.6-3.7 3.5-5.7 1.3-3 3.3-4.6 6.6-4.4 3.1.2 4 2.4 4.8 5 1.5 5.1 3.8 6.7 10.1 6.8 11.2.1 22.5 0 33.7 0h3.4c4 .2 6.1 2 6 5.6 0 3.5-2 5.5-6.1 5.6-7.2.2-14.5.1-21.7.1-5.2 0-10.5 0-15.7-.1-5.8-.1-11.5-1-15.7-5.5-12.8 9.6-18.5 7.6-27.5-9.6zM140.6 138.6h64.1c1.5 0 3 0 4.5.2 2.8.5 4.4 2.3 4.5 5.1.1 3-1.4 5-4.4 5.6-1.2.3-2.5.2-3.7.2H75.5c-1.5 0-3 0-4.4-.4-2.6-.8-4-3-3.4-5.5.5-1.9 2.1-3.8 3.7-4.9 1.1-.8 3.1-.4 4.8-.4 21.5.1 42.9.1 64.4.1zM277 223.6c-12 0-21.9-10-21.9-22s9.9-21.9 21.9-22c12.1-.1 22.3 10.1 22.1 22.2-.2 12-10.2 21.8-22.1 21.8zm.2-11.3c5.8-.1 10.7-5.1 10.6-10.9-.1-5.8-5.1-10.7-10.9-10.6-5.8.1-10.7 5.1-10.6 10.9.1 5.8 5.1 10.7 10.9 10.6z"/></svg>