<svg xmlns="http://www.w3.org/2000/svg" viewBox="0 0 295.4 336" style="enable-background:new 0 0 295.4 336" xml:space="preserve"><path d="M135.7 188.8c-4.3 2.5-8.1 4.6-11.8 6.8-13.4 7.7-26.8 15.5-40.3 23.2-2.3 1.3-3.4 2.9-4 5.4-4.3 16.4-8.7 32.8-13.1 49.2-1.6 6-6.1 9.5-11.9 9.5-5.5 0-10.1-3.5-11.4-9-.5-2-.4-4.3.1-6.2 2.3-9.1 4.7-18.1 7.1-27.2.2-.7.3-1.4.6-2.8-7.9 4.6-15.4 8.8-22.8 13.1-3.2 1.9-6.4 3.8-9.7 5.6-6 3.2-13 1.3-16.3-4.4-3.4-5.8-1.5-12.9 4.6-16.5 9.4-5.5 18.8-10.9 28.2-16.3 1.1-.7 2.2-1.4 4.1-2.5-10.3-2.7-19.8-5.2-29.2-7.8-7.3-2-11.2-8.1-9.5-14.6 1.8-6.9 8.1-10.5 15.4-8.6 16.8 4.4 33.5 9 50.3 13.3 1.3.3 3.1.3 4.2-.3 17.6-10 35.1-20.1 53-30.5-1-.7-1.7-1.4-2.5-1.8-16.5-9.6-33.1-19.2-49.7-28.6-1.5-.9-3.8-1.1-5.5-.7-16.4 4.2-32.8 8.7-49.2 13-7.9 2.1-14.3-1.3-16.1-8.5-1.7-6.6 2.4-12.6 9.9-14.7 8.6-2.3 17.1-4.6 25.7-6.9.8-.2 1.6-.6 2.9-1-10.7-6.2-21.1-12-31.2-18.1-2.3-1.4-4.4-3.4-5.7-5.6C-.8 90.8.4 85.2 4.1 81.5c3.9-3.9 9.4-4.7 14.5-1.8C28 85 37.2 90.4 46.5 95.8c1.3.7 2.6 1.5 4.6 2.6-1.2-4.7-2.3-8.9-3.4-13-1.4-5.4-3-10.8-4.4-16.3-1.9-7.4 1.6-13.9 8.3-15.6 6.7-1.7 12.9 2.3 14.9 9.7 4.3 16.1 8.7 32.3 12.9 48.5.7 2.8 2.1 4.5 4.5 5.9 17 9.7 34 19.5 51.3 29.5.1-1.1.3-1.8.3-2.6 0-19.4.1-38.8-.1-58.1 0-1.6-1-3.6-2.1-4.7-11.9-12.5-24.2-24.6-36.3-36.9-7-7-4.1-18.1 5.2-20.5 4.7-1.2 8.6.4 11.9 3.7l18.3 18.3c.9.9 1.8 1.7 3.1 2.9.1-1.5.2-2.6.2-3.6v-33c0-7.8 4.8-12.8 12.1-12.7 7.2.1 11.8 4.9 11.9 12.6v36.6c1.1-.9 1.8-1.3 2.5-2 6.3-6.3 12.5-12.6 18.8-18.8 5.5-5.5 12.7-5.9 17.7-1 5.1 5 4.9 12.3-.7 18-11.9 12-23.8 23.9-35.8 35.8-1.7 1.7-2.5 3.4-2.5 5.8.1 18.8.1 37.5.1 56.3v3.8c1.4-.7 2.5-1.2 3.6-1.8 15.9-9.2 31.8-18.4 47.7-27.5 2.7-1.5 4.2-3.4 5-6.4 4.2-16.2 8.5-32.3 12.9-48.5 1.7-6.2 6.2-9.8 12.1-9.7 5.5.1 10.2 3.7 11.3 9.2.4 2 .3 4.3-.2 6.2-2.2 9-4.7 17.9-7 26.8-.2.8-.3 1.6-.6 2.9 11-6.4 21.6-12.5 32.2-18.6 4.1-2.3 8.3-2.8 12.4 0 4.2 2.8 6.1 6.8 5.8 11.9-.3 4.5-3.1 7.2-6.7 9.3l-27.6 15.9c-1.1.7-2.3 1.3-4.2 2.5 8.9 2.4 17 4.6 25 6.8 1.6.4 3.1.8 4.7 1.3 7 2.1 10.6 8.1 8.9 14.6-1.8 6.7-8.1 10.3-15.2 8.5-13.2-3.5-26.5-6.5-39.4-10.7-9.4-3.1-16.9-2.5-25.4 3.1-13.1 8.7-27.1 15.9-40.7 23.8l-2.1 1.4c1.3.9 2.3 1.6 3.3 2.1 16.1 9.3 32.2 18.7 48.4 27.8 1.7 1 4.3 1.3 6.2.8 16.3-4.2 32.6-8.6 48.9-12.9 7.8-2.1 14.1 1.2 16 8.1 1.9 6.8-2 12.9-9.8 15-8.5 2.4-17.1 4.6-25.7 6.9-.7.2-1.4.4-2.7.9 1.5.9 2.4 1.6 3.4 2.2 9.6 5.6 19.3 11 28.8 16.7 6.7 4 7.9 12.1 3 18-4 4.8-9.6 5.7-15.5 2.4-9.5-5.4-18.8-10.8-28.3-16.3-1.1-.6-2.2-1.2-3.9-2.2 1.5 5.7 2.8 10.8 4.2 15.9 1.2 4.6 2.5 9.1 3.7 13.7 1.7 7-1.7 13.3-8.1 15.1-6.5 1.9-13.1-1.9-15-8.9-4.4-16.3-8.8-32.5-13-48.8-.8-3-2.2-4.9-5-6.4-16.3-9.2-32.5-18.6-48.7-28-.6-.4-1.3-.7-2.3-1.2-.1 1.2-.3 2.1-.3 3 0 19.1-.1 38.3.1 57.4 0 1.7 1 3.9 2.2 5.1 12.1 12.3 24.4 24.4 36.5 36.7 6.9 7 4 18.1-5.3 20.4-4.5 1.1-8.4-.3-11.6-3.5l-18.6-18.6c-.9-.9-1.8-1.6-3.3-3V322.6c0 7.9-5 13.3-12.1 13.3-6.9 0-11.9-5.4-11.9-13.1V286.6c-1.3 1.1-2.1 1.8-2.9 2.5-6.2 6.2-12.4 12.4-18.6 18.5-5.5 5.4-12.8 5.7-17.7.8-5-5-4.8-12.2.7-17.7 11.9-12 23.8-23.9 35.8-35.8 2-1.9 2.7-3.9 2.6-6.5-.1-18.5-.1-37-.1-55.5v-4.1z" style="fill:#1394cd"/></svg>