<svg version="1.1" id="Layer_1" xmlns="http://www.w3.org/2000/svg" x="0" y="0" viewBox="0 0 382.2 384.4" style="enable-background:new 0 0 382.2 384.4" xml:space="preserve"><style>.st0{fill:#1394cd}</style><path class="st0" d="M382.2 198c-6 12.7-16.4 22.1-25 32.7-14.5 17.9-29.6 35.3-44.2 53.1-13.6 16.5-31.1 24.4-52.2 24.5-32.2.2-64.5.3-96.7-.1-11.1-.1-18 6.1-24.7 13.2-.5.5-.5 1.8-.3 2.7 1.7 8.8-.6 16.2-7.1 22.4-11.3 11-22.5 22.2-33.8 33.3-4.8 4.7-8.5 4.7-13.2 0L3.4 297.6c-4.5-4.5-4.5-8.4-.1-12.9 11.2-11.3 22.5-22.6 33.7-33.9 5.1-5.1 11.2-7.6 18.5-7.3 1.1 0 2.9-.9 3.4-1.8 24.8-43.5 79-54.2 118.1-39.2 1.9.7 4.1 1 6.2 1 25.5.1 51.1.2 76.6 0 10.4-.1 19.4 2.8 27.6 12.3.6-1.4.9-2.8 1.7-3.7 13.8-14.3 27.8-28.6 41.6-42.9 16.7-17.2 41.8-12.3 50.9 10 .1.3.4.6.6.9V198zM129.7 309.6c.7-.6 1.6-1.3 2.3-2.1 9.4-10.4 21-14.4 35-14.2 30.9.5 61.8.2 92.6.1 14.8 0 28.5-4.1 38.3-15.4 22.6-26.2 44.6-52.9 66.7-79.5 5.4-6.5 4.6-15.5-1.5-20.8-6-5.4-15-5-20.9 1.1-15.9 16.3-31.8 32.6-47.6 49-.8.9-1.6 2.3-1.6 3.5-.2 19.8-12.5 32.2-32.2 32.3h-56.4c-1.6 0-3.3-.1-4.8-.5-3.2-.9-5.3-4.1-5.1-7.4.2-3.4 2.6-6.2 5.9-6.8 1.6-.3 3.2-.3 4.8-.3h55.3c1.9 0 3.8-.1 5.6-.4 7.7-1.4 13-9.2 11.6-17-1.5-8.1-7.4-12.6-16.8-12.6-26.6 0-53.3 0-79.9-.1-2.7 0-5.5-.4-8-1.4-23.2-8.9-46.1-8-68.6 2.1-14.9 6.7-26 17.7-33.5 31.8 19.9 19.6 39.3 39 58.8 58.6zm-36.4 55.8c9-9.5 18.4-19.4 27.9-29.3 4.6-4.8 4.7-8.5 0-13.2l-61-61c-4.7-4.7-8.3-4.6-13.1.1-9 9-17.9 18-26.9 27-.7.7-1.3 1.4-2.2 2.5 24.7 24.3 49.4 48.5 75.3 73.9zM230.5 0c4.6.9 9.3 1.7 13.8 2.9 38.1 10.3 62.7 44.7 60.9 84.8-1.7 36.9-30.6 69.1-68 75.8-45.9 8.1-89.8-24.2-95.7-70.6-5.8-45.5 26.1-86.5 71.6-92.2.8-.1 1.7-.4 2.5-.7h14.9zm-7.7 149.6c37.1.1 67.4-29.8 67.5-66.9.2-37.2-29.8-67.6-66.7-67.7-37.4-.2-67.8 29.8-67.9 66.9-.1 37.4 29.8 67.6 67.1 67.7z"/><path class="st0" d="M178.3 254.9c-.1 4.1-3.4 7.3-7.4 7.3-4.1 0-7.6-3.6-7.5-7.7.1-4.1 3.7-7.4 7.9-7.2 4 .1 7.1 3.4 7 7.6zM229 45.3c3.8 2.6 7.3 4.7 10.4 7.3 3.6 3 3.8 7.4 1 10.6-2.7 3.2-7 3.4-10.7.7-1.8-1.3-3.6-2.6-5.6-3.5-2.9-1.3-5.7-.4-7.9 1.8-2.1 2.1-2.8 4.7-1.7 7.6 1.1 3 3.2 4.6 6.4 5 2.5.3 5 .5 7.3 1.2 8.6 2.6 14.8 10.3 15.7 19 .9 9.1-3.6 17.9-11.8 22-2.5 1.3-3.4 2.7-3.1 5.4.2 1.8.2 3.7 0 5.6-.4 4-3.6 6.7-7.7 6.6-3.8-.1-7.5-2.9-7-6.8.8-6.7-1.4-10.8-7.6-13.4-2.6-1.1-4.6-3.8-6.5-6.1-2.5-3.1-2-7.2.8-9.8 2.9-2.8 7-2.8 10.2-.1 2 1.7 3.8 3.7 6 5 3 1.8 6.2 1.9 9.1-.4 2.5-2.1 3.5-4.8 2.4-8-1.2-3.5-3.8-5-7.4-5.3-11.7-1-19.5-7.5-21.7-18.1-2.1-9.9 2.7-19.2 12.6-24.7.9-.5 1.7-1.9 1.9-3 .3-1.8.1-3.7.1-5.6.1-5 3.2-8.4 7.6-8.4 4.3.1 7.3 3.4 7.4 8.2-.1 2.6-.2 5.3-.2 7.2z"/></svg>