<svg version="1.1" id="Layer_1" xmlns="http://www.w3.org/2000/svg" x="0" y="0" viewBox="0 0 36.1 36.1" style="enable-background:new 0 0 36.1 36.1" xml:space="preserve"><style>.st0{fill:#e21e26}</style><path class="st0" d="M36.1 18.4c0 .1-.1.1-.1.2-.3.8-.9 1.2-1.7 1.2h-2.8c-1 0-1.8-.8-1.8-1.8s.8-1.7 1.8-1.7h2.7c.9 0 1.5.4 1.8 1.3 0 0 0 .1.1.1v.7zM17.7 36.1c-.1 0-.1-.1-.2-.1-.8-.3-1.2-.9-1.2-1.7v-2.8c0-1 .8-1.8 1.8-1.8s1.7.8 1.7 1.8v2.7c0 .9-.4 1.5-1.3 1.8 0 0-.1 0-.1.1h-.7zM18 27.1c-5 0-9-4-9-9s4.1-9.1 9-9c5 0 9 4.1 9 9s-4 9-9 9zM6.6 31.4c-.8-.1-1.3-.4-1.6-1.1-.3-.6-.3-1.3.2-1.8.7-.8 1.5-1.6 2.3-2.3.7-.6 1.7-.5 2.3.1s.7 1.6.1 2.3c-.7.8-1.5 1.6-2.3 2.3-.3.2-.7.3-1 .5zM6.5 4.8c.5 0 1 .2 1.3.5.6.7 1.3 1.3 1.9 1.9.7.8.7 1.8 0 2.5s-1.7.7-2.5 0c-.7-.6-1.3-1.3-2-2-.4-.5-.6-1.1-.3-1.9.3-.7.9-1 1.6-1zM31.3 6.5c0 .5-.2.9-.6 1.3l-1.9 1.9c-.8.7-1.8.8-2.6 0-.6-.7-.6-1.7.1-2.5l1.9-1.9c.6-.6 1.2-.7 2-.4.7.3 1.1.9 1.1 1.6zM29.5 31.3c-.5 0-.9-.2-1.3-.5l-1.9-1.9c-.7-.8-.7-1.8 0-2.5s1.8-.7 2.5 0c.7.6 1.3 1.3 1.9 1.9.5.6.7 1.2.4 1.9-.3.7-.8 1.1-1.6 1.1zM19.8 3.2v1.4c0 1-.8 1.8-1.8 1.8s-1.7-.8-1.7-1.8V1.8c0-1 .8-1.8 1.8-1.8s1.7.8 1.7 1.8v1.4zM3.2 16.3h1.4c1 0 1.8.8 1.8 1.7 0 1-.8 1.8-1.8 1.8H1.9C.8 19.8 0 19 0 18s.8-1.8 1.8-1.8c.5.1.9.1 1.4.1z"/></svg>