<svg version="1.1" id="Layer_1" xmlns="http://www.w3.org/2000/svg" xmlns:xlink="http://www.w3.org/1999/xlink" x="0" y="0" viewBox="0 0 397.8 113.3" style="enable-background:new 0 0 397.8 113.3" xml:space="preserve"><style>.st0,.st1,.st2{clip-path:url(#SVGID_00000143593750037638483590000018072553833391670938_);fill:#0294cc}.st1,.st2{fill:#e01f26}.st2{fill:#0e142d}</style><defs><path id="SVGID_1_" d="M-51.4-94h500v300h-500z"/></defs><clipPath id="SVGID_00000099622882299471983790000017022544194134546842_"><use xlink:href="#SVGID_1_" style="overflow:visible"/></clipPath><path style="clip-path:url(#SVGID_00000099622882299471983790000017022544194134546842_);fill:#0294cc" d="M44 78v-3.5L41.5 72l2.5-2.5V66h3.5l2.5-2.5 2.3 2.3c.5-.8 1-1.6 1.5-2.3h-.2l-2.3-2.3v-.4l5.1-5.1c.5-.5.5-1.3 0-1.8s-1.3-.5-1.8 0l-3.3 3.3v-2.3l8.4-8.4c.5-.5.5-1.3 0-1.8s-1.3-.5-1.8 0l-6.6 6.6V40.6h3.4c.7 0 1.3-.6 1.3-1.3 0-.7-.6-1.3-1.3-1.3h-3.4v-3.3c0-.7-.6-1.3-1.3-1.3-.7 0-1.3.6-1.3 1.3V38h-3.4c-.7 0-1.3.6-1.3 1.3 0 .7.6 1.3 1.3 1.3h3.4v10.6l-6.6-6.6c-.5-.5-1.3-.5-1.8 0s-.5 1.3 0 1.8l8.4 8.4v2.3l-3.3-3.3c-.5-.5-1.3-.5-1.8 0s-.5 1.3 0 1.8l5.1 5.1v.4l-2.3 2.3h-3.2L38.8 59V47c0-.7-.6-1.3-1.3-1.3-.7 0-1.3.6-1.3 1.3v9.4l-7.5-7.5 2.4-2.4c.5-.5.5-1.3 0-1.8s-1.3-.5-1.8 0l-2.4 2.4-2.3-2.3c-.5-.5-1.3-.5-1.8 0s-.5 1.3 0 1.8l2.3 2.3-2.4 2.4c-.5.5-.5 1.3 0 1.8.2.2.6.4.9.4.3 0 .7-.1.9-.4l2.4-2.4 7.5 7.5H25c-.7 0-1.3.6-1.3 1.3 0 .7.6 1.3 1.3 1.3h12l4.4 4.4v3.2l-2.3 2.3h-.4l-5.1-5.1c-.5-.5-1.3-.5-1.8 0s-.5 1.3 0 1.8l3.3 3.3h-2.3l-8.4-8.4c-.5-.5-1.3-.5-1.8 0s-.5 1.3 0 1.8l6.6 6.6H18.7v-3.4c0-.7-.6-1.3-1.3-1.3s-1.3.6-1.3 1.3v3.4h-3.3c-.7 0-1.3.6-1.3 1.3 0 .7.6 1.3 1.3 1.3h3.3v3.4c0 .7.6 1.3 1.3 1.3s1.3-.6 1.3-1.3v-3.4h10.6l-6.6 6.6c-.5.5-.5 1.3 0 1.8.2.2.6.4.9.4.3 0 .7-.1.9-.4l8.4-8.4h2.3l-3.3 3.3c-.5.5-.5 1.3 0 1.8.2.2.6.4.9.4.3 0 .7-.1.9-.4l5.1-5.1h.4l2.3 2.3v3.2L37 83.2H25.1c-.7 0-1.3.6-1.3 1.3 0 .7.6 1.3 1.3 1.3h9.4L27 93.3l-2.4-2.4c-.5-.5-1.3-.5-1.8 0s-.5 1.3 0 1.8l2.4 2.4-2.3 2.3c-.5.5-.5 1.3 0 1.8.2.2.6.4.9.4.3 0 .7-.1.9-.4l2.3-2.3 2.4 2.4c.2.2.6.4.9.4.3 0 .7-.1.9-.4.5-.5.5-1.3 0-1.8L28.7 95l7.5-7.5v9.4c0 .7.6 1.3 1.3 1.3.7 0 1.3-.6 1.3-1.3V85l4.4-4.4H46c.2-.8.4-1.7.7-2.6H44z"/><path style="clip-path:url(#SVGID_00000099622882299471983790000017022544194134546842_);fill:#e01f26" d="M90 69.7c1.3-8.8 0-20.6 0-20.6s4.8 8.6 4.7 17.7v2.3c0 .2 0 .3-.1.5v.2c0 .2 0 .3-.1.5v.2c0 .2-.1.3-.1.5v.2c0 .2-.1.4-.1.5v.1c-.1.6-.3 1.2-.5 1.8 0 .1-.1.2-.1.2-.1.1-.1.3-.2.4 0 .1-.1.2-.1.3-.1.1-.1.3-.2.4 0 .1-.1.2-.1.3-.1.1-.1.2-.2.4-.1.1-.1.2-.2.3-.1.1-.1.2-.2.4-.1.1-.1.2-.2.3-.1.1-.1.2-.2.3-.1.1-.1.2-.2.3-.1.1-.1.2-.2.3-.1.1-.2.2-.2.3-.1.1-.2.2-.2.3l-.3.3c-.1.1-.2.2-.2.3-.1.1-.2.3-.3.4-.1.1-.1.2-.2.2l-.6.6-.2.2-.4.4c-.1.1-.2.2-.3.2-.1.1-.3.2-.4.3-.1.1-.2.2-.3.2-.1.1-.3.2-.4.3-.5.4-.6.5-.7.5-.1.1-.3.2-.4.3-.1.1-.2.2-.4.2-.2.1-.3.2-.5.3-.1.1-.3.1-.4.2-.2.1-.3.2-.5.3-.1.1-.3.1-.4.2-.2.1-.4.2-.5.3-.1.1-.3.1-.4.2l-.6.3c-.1.1-.3.1-.4.2-.2.1-.5.2-.7.3-.1 0-.2.1-.4.1-.4.1-.7.3-1.1.4 0 0 8.5-6.8 9.7-15.6M75.9 87.2c-6.3-12.6 32-27.5-6.3-87.4 0 0 9.2 33.6-11.8 58.3-18.2 21.4-16.4 48.1 2.4 51.8.9.2 1.7.3 2.6.4 0 0-11.4-5.1-10.1-18.1 1.3-13 7.6-15.2 10.1-23.4 0 0-3.6 18.9 0 26.3 2.5 5 10.9 7.1 15.1 1.7 0 0-.1 5.4-2.6 9.6l-.6.9c-.2.3-.4.5-.6.8l-.1.1-.7.7-.1.1c-.3.2-.5.4-.8.6C85.8 106.3 96 93.8 96 83.9c.1.1-13.8 15.9-20.1 3.3"/><path style="clip-path:url(#SVGID_00000099622882299471983790000017022544194134546842_);fill:#0294cc" d="M2.5 65.8c0-25.3 20.6-46 46-46 5.3 0 10.4.9 15.2 2.6l-.2-1.6c-4.7-1.6-9.8-2.4-15-2.4C22.3 18.4 1 39.7 1 65.8c0 21.8 14.8 40.2 34.9 45.7l.8-1.3C17 105.1 2.5 87.1 2.5 65.8"/><path style="clip-path:url(#SVGID_00000099622882299471983790000017022544194134546842_);fill:#0e142d" d="M127.8 43.3h-13.9v-8.2h37.9v8.2h-13.9v35.2h-10.1zM185.7 64.6h-25.3c.5 2.1 1.5 3.7 3.2 4.9 1.7 1.2 3.8 1.8 6.3 1.8 1.7 0 3.3-.3 4.6-.8 1.3-.5 2.6-1.3 3.8-2.5l5.2 5.6c-3.1 3.6-7.7 5.4-13.8 5.4-3.8 0-7.1-.7-10-2.2-2.9-1.5-5.1-3.5-6.7-6.1-1.6-2.6-2.4-5.6-2.4-8.9 0-3.3.8-6.2 2.3-8.8 1.6-2.6 3.7-4.7 6.4-6.1 2.7-1.5 5.7-2.2 9.1-2.2 3.3 0 6.2.7 8.9 2.1 2.6 1.4 4.7 3.4 6.2 6.1 1.5 2.6 2.3 5.7 2.3 9.2 0 0 0 .8-.1 2.5M163 53.8c-1.5 1.2-2.4 2.9-2.7 5.1h16.5c-.3-2.1-1.2-3.8-2.7-5.1-1.5-1.3-3.3-1.9-5.5-1.9-2.3.1-4.1.7-5.6 1.9M206.2 45.9c2-.8 4.2-1.2 6.8-1.2v8.9c-1.1-.1-1.8-.1-2.2-.1-2.8 0-4.9.8-6.5 2.3-1.6 1.6-2.4 3.9-2.4 7v15.8h-9.7V45.1h9.3v4.4c1.2-1.6 2.8-2.8 4.7-3.6M251.1 64.6h-25.3c.5 2.1 1.5 3.7 3.2 4.9 1.7 1.2 3.8 1.8 6.3 1.8 1.7 0 3.3-.3 4.6-.8 1.3-.5 2.6-1.3 3.8-2.5l5.2 5.6c-3.1 3.6-7.7 5.4-13.8 5.4-3.8 0-7.1-.7-10-2.2-2.9-1.5-5.1-3.5-6.7-6.1-1.6-2.6-2.4-5.6-2.4-8.9 0-3.3.8-6.2 2.3-8.8 1.6-2.6 3.7-4.7 6.4-6.1 2.7-1.5 5.7-2.2 9.1-2.2 3.3 0 6.2.7 8.9 2.1 2.6 1.4 4.7 3.4 6.2 6.1 1.5 2.6 2.3 5.7 2.3 9.2 0 0 0 .8-.1 2.5m-22.7-10.8c-1.5 1.2-2.4 2.9-2.7 5.1h16.5c-.3-2.1-1.2-3.8-2.7-5.1-1.5-1.3-3.3-1.9-5.5-1.9-2.3.1-4.1.7-5.6 1.9M260.8 78c-2.7-.7-4.8-1.5-6.3-2.6l3.2-7c1.5 1 3.3 1.7 5.4 2.3 2.1.6 4.2.9 6.2.9 4.1 0 6.1-1 6.1-3 0-1-.6-1.6-1.7-2-1.1-.4-2.8-.8-5.2-1.1-2.7-.4-5-.9-6.8-1.4-1.8-.5-3.3-1.5-4.6-2.9-1.3-1.4-2-3.3-2-5.8 0-2.1.6-4 1.8-5.6 1.2-1.6 3-2.9 5.3-3.8 2.3-.9 5.1-1.4 8.3-1.4 2.4 0 4.7.3 7 .8s4.3 1.2 5.8 2.1l-3.2 6.9c-2.9-1.7-6.1-2.5-9.6-2.5-2.1 0-3.6.3-4.7.9-1 .6-1.6 1.3-1.6 2.2 0 1 .6 1.8 1.7 2.2 1.1.4 2.9.8 5.3 1.2 2.7.5 5 .9 6.7 1.5 1.7.5 3.2 1.5 4.5 2.8 1.3 1.4 1.9 3.3 1.9 5.7 0 2.1-.6 3.9-1.9 5.5-1.2 1.6-3.1 2.9-5.4 3.8-2.4.9-5.2 1.3-8.5 1.3-2.3 0-5-.3-7.7-1M293.8 78c-2.7-.7-4.8-1.5-6.3-2.6l3.2-7c1.5 1 3.3 1.7 5.4 2.3 2.1.6 4.2.9 6.2.9 4.1 0 6.1-1 6.1-3 0-1-.6-1.6-1.7-2-1.1-.4-2.8-.8-5.2-1.1-2.7-.4-5-.9-6.8-1.4-1.8-.5-3.3-1.5-4.6-2.9-1.3-1.4-2-3.3-2-5.8 0-2.1.6-4 1.8-5.6 1.2-1.6 3-2.9 5.3-3.8 2.3-.9 5.1-1.4 8.3-1.4 2.4 0 4.7.3 7 .8s4.3 1.2 5.8 2.1l-3.2 6.9c-2.9-1.7-6.1-2.5-9.6-2.5-2.1 0-3.6.3-4.7.9-1 .6-1.6 1.3-1.6 2.2 0 1 .6 1.8 1.7 2.2 1.1.4 2.9.8 5.3 1.2 2.7.5 5 .9 6.7 1.5 1.7.5 3.2 1.5 4.5 2.8 1.3 1.4 1.9 3.3 1.9 5.7 0 2.1-.6 3.9-1.9 5.5-1.2 1.6-3.1 2.9-5.4 3.8-2.4.9-5.2 1.3-8.5 1.3-2.4 0-5.1-.3-7.7-1M356.2 64.6h-25.3c.5 2.1 1.5 3.7 3.2 4.9 1.7 1.2 3.8 1.8 6.3 1.8 1.7 0 3.3-.3 4.6-.8 1.3-.5 2.6-1.3 3.8-2.5l5.2 5.6c-3.1 3.6-7.7 5.4-13.8 5.4-3.8 0-7.1-.7-10-2.2-2.9-1.5-5.1-3.5-6.7-6.1-1.6-2.6-2.4-5.6-2.4-8.9 0-3.3.8-6.2 2.3-8.8 1.6-2.6 3.7-4.7 6.4-6.1 2.7-1.5 5.7-2.2 9.1-2.2 3.3 0 6.2.7 8.9 2.1 2.6 1.4 4.7 3.4 6.2 6.1 1.5 2.6 2.3 5.7 2.3 9.2.1 0 0 .8-.1 2.5m-22.7-10.8c-1.5 1.2-2.4 2.9-2.7 5.1h16.5c-.3-2.1-1.2-3.8-2.7-5.1-1.5-1.3-3.3-1.9-5.5-1.9-2.2.1-4.1.7-5.6 1.9M393.2 48.4c2.5 2.5 3.8 6.2 3.8 11.1v19.1h-9.7V60.9c0-2.6-.6-4.6-1.7-5.9-1.2-1.3-2.8-2-5-2-2.4 0-4.4.8-5.8 2.3-1.5 1.5-2.2 3.8-2.2 6.7v16.5h-9.7V45.1h9.3V49c1.3-1.4 2.9-2.5 4.8-3.3 1.9-.8 4-1.1 6.3-1.1 4 0 7.3 1.3 9.9 3.8"/><path style="clip-path:url(#SVGID_00000099622882299471983790000017022544194134546842_);fill:#e01f26" d="M125.9 96.3v11.9h-2.2v-5.1h-6.2v5.1h-2.3V96.3h2.3v4.9h6.2v-4.9zM138.5 106.4v1.8h-9V96.3h8.8v1.8h-6.5v3.1h5.7v1.9h-5.7v3.3zM149.2 105.5h-6l-1.2 2.8h-2.3l5.4-12h2.2l5.4 12h-2.3l-1.2-2.8zm-.8-1.8-2.3-5.2-2.2 5.2h4.5zM156.5 98.2h-4v-1.9h10.2v1.9h-4v10h-2.2zM164.8 96.3h2.2v12h-2.2zM181.3 96.3v11.9h-1.8l-6.6-8.1v8.1h-2.2V96.3h1.8l6.6 8.1v-8.1zM193.1 102.1h2.1v4.8c-.6.5-1.3.9-2.2 1.1s-1.7.4-2.5.4c-1.2 0-2.3-.3-3.3-.8s-1.8-1.3-2.3-2.2c-.6-.9-.8-2-.8-3.2 0-1.2.3-2.2.8-3.2.6-.9 1.3-1.7 2.3-2.2 1-.5 2.1-.8 3.3-.8 1 0 1.9.2 2.7.5s1.5.8 2.1 1.5l-1.4 1.4c-.9-.9-2-1.4-3.3-1.4-.8 0-1.6.2-2.2.5-.7.4-1.2.8-1.5 1.5-.4.6-.6 1.4-.6 2.2 0 .8.2 1.5.6 2.2.4.6.9 1.1 1.5 1.5.7.4 1.4.5 2.2.5.9 0 1.8-.2 2.5-.6v-3.7z"/><path style="clip-path:url(#SVGID_00000099622882299471983790000017022544194134546842_);fill:#0e142d" d="m212.7 108.4-1.5-1.5c-1.1 1-2.5 1.4-4 1.4-.8 0-1.6-.1-2.2-.4a5 5 0 0 1-1.6-1.1c-.4-.5-.6-1-.6-1.7s.2-1.4.6-2c.4-.6 1.1-1.1 2.1-1.7-.5-.5-.8-.9-1-1.3-.2-.4-.3-.8-.3-1.3 0-.8.3-1.5.9-2 .6-.5 1.5-.8 2.5-.8s1.7.2 2.3.7c.6.5.9 1.1.9 1.9 0 .6-.2 1.2-.6 1.6-.4.5-1 1-1.9 1.5l2.6 2.5c.3-.6.5-1.2.7-2l1.7.6c-.2 1.1-.6 2-1.1 2.7l1.5 1.4-1 1.5zm-2.8-2.6-3.2-3c-.7.4-1.2.7-1.4 1.1-.3.3-.4.7-.4 1.2s.2.9.7 1.2c.4.3 1 .5 1.8.5.9-.1 1.8-.4 2.5-1m-3.3-7.8c-.3.2-.4.5-.4.9 0 .3.1.5.2.8.1.2.4.6.9 1 .7-.4 1.2-.7 1.4-1 .3-.3.4-.6.4-.9 0-.4-.1-.6-.4-.8-.2-.2-.6-.3-1-.3-.5 0-.8.1-1.1.3"/><path style="clip-path:url(#SVGID_00000099622882299471983790000017022544194134546842_);fill:#0294cc" d="M229.1 105.5h-6l-1.2 2.8h-2.3l5.4-12h2.2l5.4 12h-2.3l-1.2-2.8zm-.7-1.8-2.3-5.2-2.2 5.2h4.5zM234.6 96.3h2.2v12h-2.2zM248.3 108.2l-2.4-3.5h-3.2v3.5h-2.2v-12h4.9c1 0 1.9.2 2.7.5.8.3 1.4.8 1.8 1.5.4.6.6 1.4.6 2.3 0 .9-.2 1.7-.7 2.3-.4.7-1.1 1.1-1.9 1.5l2.8 3.9h-2.4zm-.8-9.4c-.5-.4-1.2-.6-2.2-.6h-2.6v4.8h2.6c1 0 1.7-.2 2.2-.6.5-.4.8-1 .8-1.8s-.3-1.4-.8-1.8M260.8 107.6c-1-.5-1.7-1.3-2.3-2.2-.6-.9-.8-2-.8-3.2 0-1.2.3-2.2.8-3.2.6-.9 1.3-1.7 2.3-2.2 1-.5 2.1-.8 3.3-.8 1 0 1.9.2 2.7.5.8.3 1.5.8 2.1 1.5l-1.4 1.3c-.9-.9-1.9-1.4-3.2-1.4-.8 0-1.6.2-2.2.5-.6.4-1.2.9-1.5 1.5-.4.6-.5 1.4-.5 2.2 0 .8.2 1.5.5 2.2.4.6.9 1.1 1.5 1.5.6.4 1.4.5 2.2.5 1.3 0 2.3-.5 3.2-1.4l1.4 1.4c-.6.6-1.2 1.1-2.1 1.5-.8.3-1.7.5-2.7.5-1.2.1-2.3-.2-3.3-.7M273.4 107.6c-1-.5-1.7-1.3-2.3-2.2-.6-.9-.8-2-.8-3.2 0-1.2.3-2.2.8-3.2.6-.9 1.3-1.7 2.3-2.2 1-.5 2.1-.8 3.3-.8 1.2 0 2.3.3 3.3.8s1.8 1.3 2.3 2.2c.6.9.8 2 .8 3.2 0 1.2-.3 2.2-.8 3.2-.6.9-1.3 1.7-2.3 2.2-1 .5-2.1.8-3.3.8-1.2 0-2.3-.3-3.3-.8m5.5-1.7c.6-.4 1.1-.9 1.5-1.5.4-.6.5-1.4.5-2.2 0-.8-.2-1.5-.5-2.2-.4-.6-.9-1.1-1.5-1.5-.6-.4-1.4-.5-2.2-.5-.8 0-1.5.2-2.2.5-.6.4-1.1.9-1.5 1.5-.4.6-.5 1.4-.5 2.2 0 .8.2 1.5.5 2.2.4.6.9 1.1 1.5 1.5.6.4 1.4.5 2.2.5.8.1 1.6-.1 2.2-.5M296.6 96.3v11.9h-1.8l-6.6-8.1v8.1H286V96.3h1.8l6.6 8.1v-8.1zM300.3 96.3h5.2c1.3 0 2.4.2 3.4.7 1 .5 1.8 1.2 2.3 2.1s.8 2 .8 3.1c0 1.2-.3 2.2-.8 3.1s-1.3 1.6-2.3 2.1c-1 .5-2.1.7-3.4.7h-5.2V96.3zm5.1 10.1c.9 0 1.7-.2 2.3-.5.7-.3 1.2-.8 1.5-1.4.4-.6.5-1.3.5-2.2s-.2-1.5-.5-2.2c-.4-.6-.9-1.1-1.5-1.4-.7-.3-1.4-.5-2.3-.5h-2.9v8.2h2.9zM314.8 96.3h2.2v12h-2.2zM323.1 98.2h-3.9v-1.9h10.1v1.9h-4v10h-2.2zM331.4 96.3h2.2v12h-2.2zM339.6 107.6c-1-.5-1.7-1.3-2.3-2.2-.6-.9-.8-2-.8-3.2 0-1.2.3-2.2.8-3.2.6-.9 1.3-1.7 2.3-2.2 1-.5 2.1-.8 3.3-.8 1.2 0 2.3.3 3.3.8s1.8 1.3 2.3 2.2c.6.9.8 2 .8 3.2 0 1.2-.3 2.2-.8 3.2-.6.9-1.3 1.7-2.3 2.2-1 .5-2.1.8-3.3.8-1.2 0-2.3-.3-3.3-.8m5.4-1.7c.6-.4 1.1-.9 1.5-1.5.4-.6.5-1.4.5-2.2 0-.8-.2-1.5-.5-2.2-.4-.6-.9-1.1-1.5-1.5-.6-.4-1.4-.5-2.2-.5-.8 0-1.5.2-2.2.5-.6.4-1.1.9-1.5 1.5-.4.6-.5 1.4-.5 2.2 0 .8.2 1.5.5 2.2.4.6.9 1.1 1.5 1.5.6.4 1.4.5 2.2.5.9.1 1.6-.1 2.2-.5M362.8 96.3v11.9h-1.9l-6.6-8.1v8.1h-2.2V96.3h1.9l6.6 8.1v-8.1zM366.4 96.3h2.2v12h-2.2zM382.9 96.3v11.9h-1.8l-6.6-8.1v8.1h-2.2V96.3h1.8l6.6 8.1v-8.1zM394.7 102.1h2.1v4.8c-.6.5-1.3.9-2.2 1.1-.8.3-1.7.4-2.5.4-1.2 0-2.3-.3-3.3-.8s-1.8-1.3-2.3-2.2c-.6-.9-.8-2-.8-3.2 0-1.2.3-2.2.8-3.2.6-.9 1.3-1.7 2.3-2.2 1-.5 2.1-.8 3.3-.8 1 0 1.9.2 2.7.5.8.3 1.5.8 2.1 1.5l-1.4 1.4c-.9-.9-2-1.4-3.3-1.4-.8 0-1.6.2-2.2.5-.7.4-1.2.8-1.5 1.5-.4.6-.6 1.4-.6 2.2 0 .8.2 1.5.6 2.2.4.6.9 1.1 1.5 1.5.7.4 1.4.5 2.2.5.9 0 1.8-.2 2.5-.6v-3.7z"/></svg>